<?xml version="1.0" encoding="UTF-8" standalone="no"?>
<svg width="225.954mm" height="125.942mm"
 viewBox="0 0 854 476"
 xmlns="http://www.w3.org/2000/svg" xmlns:xlink="http://www.w3.org/1999/xlink"  version="1.2" baseProfile="tiny">
<title>Qt SVG Document</title>
<desc>Generated with Qt</desc>
<defs>
</defs>
<g fill="none" stroke="black" stroke-width="1" fill-rule="evenodd" stroke-linecap="square" stroke-linejoin="bevel" >

<g fill="#000000" fill-opacity="1" stroke="none" transform="matrix(1,0,0,1,0,0)"
font-family="Ubuntu" font-size="14.6667" font-weight="400" font-style="normal" 
>
<path vector-effect="none" fill-rule="evenodd" d="M0,0 L854,0 L854,476 L0,476 L0,0"/>
</g>

<g fill="none" stroke="#000000" stroke-opacity="1" stroke-width="1" stroke-linecap="square" stroke-linejoin="bevel" transform="matrix(1,0,0,1,0,0)"
font-family="Ubuntu" font-size="14.6667" font-weight="400" font-style="normal" 
>
</g>

<g fill="#000000" fill-opacity="1" stroke="#000000" stroke-opacity="1" stroke-width="1" stroke-linecap="butt" stroke-linejoin="miter" stroke-miterlimit="2" transform="matrix(1,0,0,1,0,0)"
font-family="Ubuntu" font-size="14.6667" font-weight="400" font-style="normal" 
>
</g>

<g fill="#000000" fill-opacity="1" stroke="#000000" stroke-opacity="1" stroke-width="1" stroke-linecap="butt" stroke-linejoin="miter" stroke-miterlimit="2" transform="matrix(1,0,0,1,0,0)"
font-family="Ubuntu" font-size="14.6667" font-weight="400" font-style="normal" 
>
</g>

<g fill="#ffff00" fill-opacity="1" stroke="#ffff00" stroke-opacity="1" stroke-width="1" stroke-linecap="square" stroke-linejoin="bevel" transform="matrix(1,0,0,1,0,0)"
font-family="Ubuntu" font-size="14.6667" font-weight="400" font-style="normal" 
>
<polyline fill="none" vector-effect="non-scaling-stroke" points="270.666,98.4234 281.317,98.4234 " />
<polyline fill="none" vector-effect="non-scaling-stroke" points="317.89,98.4234 328.54,98.4208 " />
<polyline fill="none" vector-effect="non-scaling-stroke" points="228.177,98.4234 238.828,98.4234 " />
<polyline fill="none" vector-effect="non-scaling-stroke" points="240.313,86.2538 240.313,75.6034 " />
<polyline fill="none" vector-effect="non-scaling-stroke" points="222.637,111.784 222.637,121.927 " />
<polyline fill="none" vector-effect="non-scaling-stroke" points="255.122,281.916 245.175,281.831 " />
<polyline fill="none" vector-effect="non-scaling-stroke" points="301.128,250.71 301.128,269.869 " />
<polyline fill="none" vector-effect="non-scaling-stroke" points="359.385,156.688 347.607,156.688 " />
<polyline fill="none" vector-effect="non-scaling-stroke" points="351.983,33.6627 351.983,20.3171 " />
<polyline fill="none" vector-effect="non-scaling-stroke" points="351.983,50.0155 351.983,59.1639 " />
<polyline fill="none" vector-effect="non-scaling-stroke" points="351.983,46.4705 351.983,37.3221 " />
<polyline fill="none" vector-effect="non-scaling-stroke" points="386.103,60.9936 395.252,60.9936 " />
<polyline fill="none" vector-effect="non-scaling-stroke" points="400.631,60.9936 409.779,60.9936 " />
<polyline fill="none" vector-effect="non-scaling-stroke" points="415.197,72.0476 415.197,88.7891 " />
<polyline fill="none" vector-effect="non-scaling-stroke" points="469.8,96.6176 481.578,96.6176 " />
<polyline fill="none" vector-effect="non-scaling-stroke" points="469.8,42.5883 469.8,51.6045 " />
<polyline fill="none" vector-effect="non-scaling-stroke" points="382.722,94.42 400.755,94.42 " />
<polyline fill="none" vector-effect="non-scaling-stroke" points="520.683,92.673 508.851,92.673 " />
<polyline fill="none" vector-effect="non-scaling-stroke" points="301.128,164.774 301.128,180.527 " />
<polyline fill="none" vector-effect="non-scaling-stroke" points="370.711,116.159 359.385,116.159 " />
<polyline fill="none" vector-effect="non-scaling-stroke" points="416.747,116.199 427.47,116.199 " />
<polyline fill="none" vector-effect="non-scaling-stroke" points="440.77,116.199 450.068,116.199 " />
<polyline fill="none" vector-effect="non-scaling-stroke" points="644.161,57.5595 662.239,57.5595 " />
<polyline fill="none" vector-effect="non-scaling-stroke" points="644.182,20.2724 664.512,20.2724 " />
<polyline fill="none" vector-effect="non-scaling-stroke" points="224.717,402.344 236.247,402.344 " />
<polyline fill="none" vector-effect="non-scaling-stroke" points="187.712,459.858 187.712,446.325 " />
<polyline fill="none" vector-effect="non-scaling-stroke" points="267.856,397.986 277.943,397.986 " />
<polyline fill="none" vector-effect="non-scaling-stroke" points="290.227,453.674 290.227,463.471 " />
<polyline fill="none" vector-effect="non-scaling-stroke" points="306.014,374.45 313.84,374.499 " />
<polyline fill="none" vector-effect="non-scaling-stroke" points="669.556,457.604 669.556,447.129 " />
<polyline fill="none" vector-effect="non-scaling-stroke" points="515.632,291.03 515.64,300.75 " />
<polyline fill="none" vector-effect="non-scaling-stroke" points="547.132,348.725 547.132,321.572 " />
<polyline fill="none" vector-effect="non-scaling-stroke" points="564.056,298.186 573.777,298.186 " />
<polyline fill="none" vector-effect="non-scaling-stroke" points="552.281,298.186 562.644,298.186 " />
<polyline fill="none" vector-effect="non-scaling-stroke" points="533.39,304.19 533.39,293.809 " />
<polyline fill="none" vector-effect="non-scaling-stroke" points="533.39,291.611 533.39,281.45 " />
<polyline fill="none" vector-effect="non-scaling-stroke" points="602.751,237.976 602.751,248.49 " />
<polyline fill="none" vector-effect="non-scaling-stroke" points="418.457,268.851 418.457,278.45 " />
<polyline fill="none" vector-effect="non-scaling-stroke" points="489.063,136.129 489.063,145.836 " />
<polyline fill="none" vector-effect="non-scaling-stroke" points="489.063,125.921 489.063,116.213 " />
<polyline fill="none" vector-effect="non-scaling-stroke" points="586.635,292.877 586.635,281.45 " />
<polyline fill="none" vector-effect="non-scaling-stroke" points="523.379,390.49 533.523,390.49 " />
<polyline fill="none" vector-effect="non-scaling-stroke" points="354.621,366.585 354.621,357.102 " />
<polyline fill="none" vector-effect="non-scaling-stroke" points="320.186,317.93 320.178,328.017 " />
<polyline fill="none" vector-effect="non-scaling-stroke" points="500.868,297.424 500.868,278.45 " />
<polyline fill="none" vector-effect="non-scaling-stroke" points="500.868,278.45 500.868,268.307 " />
<polyline fill="none" vector-effect="non-scaling-stroke" points="601.559,57.5595 589.565,57.5595 " />
<polyline fill="none" vector-effect="non-scaling-stroke" points="301.128,240.144 301.128,229.933 " />
<polyline fill="none" vector-effect="non-scaling-stroke" points="525.431,244.717 515.632,244.717 " />
<polyline fill="none" vector-effect="non-scaling-stroke" points="587.111,244.717 586.635,257.444 " />
</g>

<g fill="none" stroke="#000000" stroke-opacity="1" stroke-width="1" stroke-linecap="square" stroke-linejoin="bevel" transform="matrix(1,0,0,1,0,0)"
font-family="Ubuntu" font-size="14.6667" font-weight="400" font-style="normal" 
>
</g>
</g>
</svg>
