<?xml version="1.0" encoding="UTF-8" standalone="no"?>
<svg width="225.954mm" height="125.942mm"
 viewBox="0 0 854 476"
 xmlns="http://www.w3.org/2000/svg" xmlns:xlink="http://www.w3.org/1999/xlink"  version="1.2" baseProfile="tiny">
<title>Qt SVG Document</title>
<desc>Generated with Qt</desc>
<defs>
</defs>
<g fill="none" stroke="black" stroke-width="1" fill-rule="evenodd" stroke-linecap="square" stroke-linejoin="bevel" >

<g fill="#000000" fill-opacity="1" stroke="none" transform="matrix(1,0,0,1,0,0)"
font-family="Ubuntu" font-size="14.6667" font-weight="400" font-style="normal" 
>
<path vector-effect="none" fill-rule="evenodd" d="M0,0 L854,0 L854,476 L0,476 L0,0"/>
</g>

<g fill="none" stroke="#000000" stroke-opacity="1" stroke-width="1" stroke-linecap="square" stroke-linejoin="bevel" transform="matrix(1,0,0,1,0,0)"
font-family="Ubuntu" font-size="14.6667" font-weight="400" font-style="normal" 
>
</g>

<g fill="#000000" fill-opacity="1" stroke="#000000" stroke-opacity="1" stroke-width="1" stroke-linecap="butt" stroke-linejoin="miter" stroke-miterlimit="2" transform="matrix(1,0,0,1,0,0)"
font-family="Ubuntu" font-size="14.6667" font-weight="400" font-style="normal" 
>
</g>

<g fill="#000000" fill-opacity="1" stroke="#000000" stroke-opacity="1" stroke-width="1" stroke-linecap="butt" stroke-linejoin="miter" stroke-miterlimit="2" transform="matrix(1,0,0,1,0,0)"
font-family="Ubuntu" font-size="14.6667" font-weight="400" font-style="normal" 
>
</g>

<g fill="#dd6e00" fill-opacity="1" stroke="#dd6e00" stroke-opacity="1" stroke-width="1" stroke-linecap="square" stroke-linejoin="bevel" transform="matrix(1,0,0,1,0,0)"
font-family="Ubuntu" font-size="14.6667" font-weight="400" font-style="normal" 
>
<polyline fill="none" vector-effect="non-scaling-stroke" points="450.068,154.158 450.068,116.199 " />
<polyline fill="none" vector-effect="non-scaling-stroke" points="450.068,116.199 450.068,116.633 " />
<polyline fill="none" vector-effect="non-scaling-stroke" points="347.607,156.16 347.607,240.144 " />
<polyline fill="none" vector-effect="non-scaling-stroke" points="347.607,164.774 301.128,164.774 " />
<polyline fill="none" vector-effect="non-scaling-stroke" points="347.607,205.233 301.128,205.233 " />
<polyline fill="none" vector-effect="non-scaling-stroke" points="301.128,240.144 500.868,240.144 " />
<polyline fill="none" vector-effect="non-scaling-stroke" points="301.128,240.144 301.128,250.71 " />
<polyline fill="none" vector-effect="non-scaling-stroke" points="238.828,98.4234 270.666,98.4234 " />
<polyline fill="none" vector-effect="non-scaling-stroke" points="281.317,98.4234 317.89,98.4234 " />
<polyline fill="none" vector-effect="non-scaling-stroke" points="282.802,98.4234 282.802,20.3171 " />
<polyline fill="none" vector-effect="non-scaling-stroke" points="240.313,20.3171 240.313,75.6034 " />
<polyline fill="none" vector-effect="non-scaling-stroke" points="240.313,86.2538 240.313,98.4234 " />
<polyline fill="none" vector-effect="non-scaling-stroke" points="386.103,60.9936 332.428,60.9936 " />
<polyline fill="none" vector-effect="non-scaling-stroke" points="332.428,94.42 332.428,20.3171 " />
<polyline fill="none" vector-effect="non-scaling-stroke" points="382.722,94.42 332.428,94.42 " />
<polyline fill="none" vector-effect="non-scaling-stroke" points="228.177,98.4234 188.771,98.4231 " />
</g>

<g fill="#00ffff" fill-opacity="1" stroke="#00ffff" stroke-opacity="1" stroke-width="1" stroke-linecap="square" stroke-linejoin="bevel" transform="matrix(1,0,0,1,0,0)"
font-family="Ubuntu" font-size="14.6667" font-weight="400" font-style="normal" 
>
<polyline fill="none" vector-effect="non-scaling-stroke" points="222.637,111.784 222.637,98.4234 " />
</g>

<g fill="#dd6e00" fill-opacity="1" stroke="#dd6e00" stroke-opacity="1" stroke-width="1" stroke-linecap="square" stroke-linejoin="bevel" transform="matrix(1,0,0,1,0,0)"
font-family="Ubuntu" font-size="14.6667" font-weight="400" font-style="normal" 
>
<polyline fill="none" vector-effect="non-scaling-stroke" points="188.819,134.103 222.637,134.103 " />
<polyline fill="none" vector-effect="non-scaling-stroke" points="222.637,121.927 222.637,173.883 " />
<polyline fill="none" vector-effect="non-scaling-stroke" points="550.824,92.673 550.824,20.3171 " />
</g>

<g fill="#00ffff" fill-opacity="1" stroke="#00ffff" stroke-opacity="1" stroke-width="1" stroke-linecap="square" stroke-linejoin="bevel" transform="matrix(1,0,0,1,0,0)"
font-family="Ubuntu" font-size="14.6667" font-weight="400" font-style="normal" 
>
<polyline fill="none" vector-effect="non-scaling-stroke" points="256.43,281.916 255.122,281.916 " />
</g>

<g fill="#dd6e00" fill-opacity="1" stroke="#dd6e00" stroke-opacity="1" stroke-width="1" stroke-linecap="square" stroke-linejoin="bevel" transform="matrix(1,0,0,1,0,0)"
font-family="Ubuntu" font-size="14.6667" font-weight="400" font-style="normal" 
>
<polyline fill="none" vector-effect="non-scaling-stroke" points="301.128,269.869 301.128,278.45 " />
<polyline fill="none" vector-effect="non-scaling-stroke" points="400.755,94.42 415.197,94.42 " />
<polyline fill="none" vector-effect="non-scaling-stroke" points="351.983,59.1639 351.983,60.9936 " />
<polyline fill="none" vector-effect="non-scaling-stroke" points="415.197,88.7891 415.197,94.42 " />
<polyline fill="none" vector-effect="non-scaling-stroke" points="503.573,92.673 508.851,92.673 " />
<polyline fill="none" vector-effect="non-scaling-stroke" points="508.851,92.673 508.851,20.3171 " />
<polyline fill="none" vector-effect="non-scaling-stroke" points="395.055,116.159 395.055,240.144 " />
<polyline fill="none" vector-effect="non-scaling-stroke" points="395.055,116.159 406.83,116.199 " />
<polyline fill="none" vector-effect="non-scaling-stroke" points="427.47,154.721 427.47,116.199 " />
<polyline fill="none" vector-effect="non-scaling-stroke" points="427.47,116.199 440.77,116.199 " />
<polyline fill="none" vector-effect="non-scaling-stroke" points="450.068,154.721 450.068,116.199 " />
<polyline fill="none" vector-effect="non-scaling-stroke" points="450.068,116.199 458.067,116.199 " />
<polyline fill="none" vector-effect="non-scaling-stroke" points="450.068,154.721 462.913,154.721 " />
<polyline fill="none" vector-effect="non-scaling-stroke" points="481.578,96.6176 503.573,96.6176 " />
<polyline fill="none" vector-effect="non-scaling-stroke" points="586.635,257.444 586.635,281.45 " />
<polyline fill="none" vector-effect="non-scaling-stroke" points="586.635,281.45 515.632,281.45 515.632,291.03 " />
<polyline fill="none" vector-effect="non-scaling-stroke" points="515.632,300.75 515.632,321.572 " />
<polyline fill="none" vector-effect="non-scaling-stroke" points="547.978,321.572 515.632,321.572 " />
</g>

<g fill="#00ffff" fill-opacity="1" stroke="#00ffff" stroke-opacity="1" stroke-width="1" stroke-linecap="square" stroke-linejoin="bevel" transform="matrix(1,0,0,1,0,0)"
font-family="Ubuntu" font-size="14.6667" font-weight="400" font-style="normal" 
>
<polyline fill="none" vector-effect="non-scaling-stroke" points="515.632,281.45 515.632,244.717 " />
</g>

<g fill="#dd6e00" fill-opacity="1" stroke="#dd6e00" stroke-opacity="1" stroke-width="1" stroke-linecap="square" stroke-linejoin="bevel" transform="matrix(1,0,0,1,0,0)"
font-family="Ubuntu" font-size="14.6667" font-weight="400" font-style="normal" 
>
<polyline fill="none" vector-effect="non-scaling-stroke" points="551.133,316.716 551.133,244.371 " />
</g>

<g fill="#00ffff" fill-opacity="1" stroke="#00ffff" stroke-opacity="1" stroke-width="1" stroke-linecap="square" stroke-linejoin="bevel" transform="matrix(1,0,0,1,0,0)"
font-family="Ubuntu" font-size="14.6667" font-weight="400" font-style="normal" 
>
<polyline fill="none" vector-effect="non-scaling-stroke" points="525.431,244.717 551.133,244.717 " />
</g>

<g fill="#dd6e00" fill-opacity="1" stroke="#dd6e00" stroke-opacity="1" stroke-width="1" stroke-linecap="square" stroke-linejoin="bevel" transform="matrix(1,0,0,1,0,0)"
font-family="Ubuntu" font-size="14.6667" font-weight="400" font-style="normal" 
>
<polyline fill="none" vector-effect="non-scaling-stroke" points="552.281,298.186 551.133,298.186 " />
<polyline fill="none" vector-effect="non-scaling-stroke" points="533.39,304.19 533.39,308.773 " />
<polyline fill="none" vector-effect="non-scaling-stroke" points="551.133,308.773 533.39,308.773 " />
<polyline fill="none" vector-effect="non-scaling-stroke" points="547.978,321.572 547.978,316.716 " />
<polyline fill="none" vector-effect="non-scaling-stroke" points="547.978,316.716 551.133,316.716 " />
<polyline fill="none" vector-effect="non-scaling-stroke" points="533.39,291.611 533.39,293.809 " />
<polyline fill="none" vector-effect="non-scaling-stroke" points="551.133,293.809 533.39,293.809 " />
<polyline fill="none" vector-effect="non-scaling-stroke" points="586.635,292.877 586.635,321.914 " />
</g>

<g fill="#00ffff" fill-opacity="1" stroke="#00ffff" stroke-opacity="1" stroke-width="1" stroke-linecap="square" stroke-linejoin="bevel" transform="matrix(1,0,0,1,0,0)"
font-family="Ubuntu" font-size="14.6667" font-weight="400" font-style="normal" 
>
<polyline fill="none" vector-effect="non-scaling-stroke" points="551.133,244.717 587.111,244.717 " />
</g>

<g fill="#dd6e00" fill-opacity="1" stroke="#dd6e00" stroke-opacity="1" stroke-width="1" stroke-linecap="square" stroke-linejoin="bevel" transform="matrix(1,0,0,1,0,0)"
font-family="Ubuntu" font-size="14.6667" font-weight="400" font-style="normal" 
>
<polyline fill="none" vector-effect="non-scaling-stroke" points="500.868,278.45 301.128,278.45 " />
<polyline fill="none" vector-effect="non-scaling-stroke" points="332.428,94.42 332.428,98.4208 " />
<polyline fill="none" vector-effect="non-scaling-stroke" points="328.54,98.4208 332.428,98.4208 " />
<polyline fill="none" vector-effect="non-scaling-stroke" points="415.197,94.42 415.197,96.6176 " />
<polyline fill="none" vector-effect="non-scaling-stroke" points="503.573,92.673 503.573,96.6176 " />
<polyline fill="none" vector-effect="non-scaling-stroke" points="523.379,390.49 522.197,390.49 " />
<polyline fill="none" vector-effect="non-scaling-stroke" points="522.197,390.49 522.197,353.185 " />
<polyline fill="none" vector-effect="non-scaling-stroke" points="533.523,390.49 585.141,390.184 " />
<polyline fill="none" vector-effect="non-scaling-stroke" points="585.117,386.545 585.141,390.184 " />
<polyline fill="none" vector-effect="non-scaling-stroke" points="585.117,353.185 585.117,344.369 " />
<polyline fill="none" vector-effect="non-scaling-stroke" points="417.009,392.425 354.621,392.425 " />
<polyline fill="none" vector-effect="non-scaling-stroke" points="417.009,347.086 417.009,392.425 " />
<polyline fill="none" vector-effect="non-scaling-stroke" points="417.009,347.086 418.456,347.086 " />
<polyline fill="none" vector-effect="non-scaling-stroke" points="418.456,347.086 418.457,278.45 " />
<polyline fill="none" vector-effect="non-scaling-stroke" points="307.856,357.102 384.172,357.102 " />
<polyline fill="none" vector-effect="non-scaling-stroke" points="384.172,392.425 384.172,357.102 " />
</g>

<g fill="#00ffff" fill-opacity="1" stroke="#00ffff" stroke-opacity="1" stroke-width="1" stroke-linecap="square" stroke-linejoin="bevel" transform="matrix(1,0,0,1,0,0)"
font-family="Ubuntu" font-size="14.6667" font-weight="400" font-style="normal" 
>
<polyline fill="none" vector-effect="non-scaling-stroke" points="500.868,268.307 500.868,240.144 " />
</g>

<g fill="#dd6e00" fill-opacity="1" stroke="#dd6e00" stroke-opacity="1" stroke-width="1" stroke-linecap="square" stroke-linejoin="bevel" transform="matrix(1,0,0,1,0,0)"
font-family="Ubuntu" font-size="14.6667" font-weight="400" font-style="normal" 
>
<polyline fill="none" vector-effect="non-scaling-stroke" points="500.868,297.424 500.868,331.196 418.456,331.195 " />
</g>

<g fill="none" stroke="#000000" stroke-opacity="1" stroke-width="1" stroke-linecap="square" stroke-linejoin="bevel" transform="matrix(1,0,0,1,0,0)"
font-family="Ubuntu" font-size="14.6667" font-weight="400" font-style="normal" 
>
</g>
</g>
</svg>
