<?xml version="1.0" encoding="UTF-8" standalone="no"?>
<svg width="225.954mm" height="125.942mm"
 viewBox="0 0 854 476"
 xmlns="http://www.w3.org/2000/svg" xmlns:xlink="http://www.w3.org/1999/xlink"  version="1.2" baseProfile="tiny">
<title>Qt SVG Document</title>
<desc>Generated with Qt</desc>
<defs>
</defs>
<g fill="none" stroke="black" stroke-width="1" fill-rule="evenodd" stroke-linecap="square" stroke-linejoin="bevel" >

<g fill="#000000" fill-opacity="1" stroke="none" transform="matrix(1,0,0,1,0,0)"
font-family="Ubuntu" font-size="14.6667" font-weight="400" font-style="normal" 
>
<path vector-effect="none" fill-rule="evenodd" d="M0,0 L854,0 L854,476 L0,476 L0,0"/>
</g>

<g fill="none" stroke="#000000" stroke-opacity="1" stroke-width="1" stroke-linecap="square" stroke-linejoin="bevel" transform="matrix(1,0,0,1,0,0)"
font-family="Ubuntu" font-size="14.6667" font-weight="400" font-style="normal" 
>
</g>

<g fill="#000000" fill-opacity="1" stroke="#000000" stroke-opacity="1" stroke-width="1" stroke-linecap="butt" stroke-linejoin="miter" stroke-miterlimit="2" transform="matrix(1,0,0,1,0,0)"
font-family="Ubuntu" font-size="14.6667" font-weight="400" font-style="normal" 
>
</g>

<g fill="#000000" fill-opacity="1" stroke="#000000" stroke-opacity="1" stroke-width="1" stroke-linecap="butt" stroke-linejoin="miter" stroke-miterlimit="2" transform="matrix(1,0,0,1,0,0)"
font-family="Ubuntu" font-size="14.6667" font-weight="400" font-style="normal" 
>
</g>

<g fill="#ff0000" fill-opacity="1" stroke="#ff0000" stroke-opacity="1" stroke-width="1" stroke-linecap="square" stroke-linejoin="bevel" transform="matrix(1,0,0,1,0,0)"
font-family="Ubuntu" font-size="14.6667" font-weight="400" font-style="normal" 
>
<polyline fill="none" vector-effect="non-scaling-stroke" points="193.693,20.3171 188.771,20.3171 " />
<polyline fill="none" vector-effect="non-scaling-stroke" points="188.771,20.3171 188.771,64.3282 " />
<polyline fill="none" vector-effect="non-scaling-stroke" points="331.742,20.3171 422.311,20.3171 " />
<polyline fill="none" vector-effect="non-scaling-stroke" points="494.506,20.3171 504.024,20.3171 " />
<polyline fill="none" vector-effect="non-scaling-stroke" points="580.49,20.3171 589.565,20.3171 " />
<polyline fill="none" vector-effect="non-scaling-stroke" points="664.512,20.2724 669.531,20.2724 " />
<polyline fill="none" vector-effect="non-scaling-stroke" points="669.531,20.2724 669.556,26.1502 " />
<polyline fill="none" vector-effect="non-scaling-stroke" points="669.556,90.7609 669.556,101.053 " />
<polyline fill="none" vector-effect="non-scaling-stroke" points="669.556,165.664 669.556,175.956 " />
<polyline fill="none" vector-effect="non-scaling-stroke" points="669.556,235.815 669.556,246.107 " />
<polyline fill="none" vector-effect="non-scaling-stroke" points="669.556,311.486 669.556,322.756 " />
<polyline fill="none" vector-effect="non-scaling-stroke" points="669.556,384.122 669.556,395.392 " />
<polyline fill="none" vector-effect="non-scaling-stroke" points="669.556,457.604 669.556,463.458 " />
<polyline fill="none" vector-effect="non-scaling-stroke" points="669.556,463.458 661.638,463.471 " />
<polyline fill="none" vector-effect="non-scaling-stroke" points="589.734,463.471 575.252,463.471 " />
<polyline fill="none" vector-effect="non-scaling-stroke" points="503.122,463.471 489.598,463.471 " />
<polyline fill="none" vector-effect="non-scaling-stroke" points="417.242,463.471 404.507,463.471 " />
<polyline fill="none" vector-effect="non-scaling-stroke" points="347.251,463.471 343.778,463.471 " />
<polyline fill="none" vector-effect="non-scaling-stroke" points="332.715,463.471 290.227,463.471 " />
<polyline fill="none" vector-effect="non-scaling-stroke" points="255.374,463.471 247.103,463.471 " />
<polyline fill="none" vector-effect="non-scaling-stroke" points="195.078,463.471 187.712,463.471 " />
<polyline fill="none" vector-effect="non-scaling-stroke" points="187.712,459.858 187.712,463.471 " />
<polyline fill="none" vector-effect="non-scaling-stroke" points="188.824,432.839 188.819,426.302 " />
<polyline fill="none" vector-effect="non-scaling-stroke" points="188.819,397.791 188.819,348.632 " />
<polyline fill="none" vector-effect="non-scaling-stroke" points="188.819,318.039 188.819,310.627 " />
<polyline fill="none" vector-effect="non-scaling-stroke" points="188.819,282.699 188.819,236.932 " />
<polyline fill="none" vector-effect="non-scaling-stroke" points="192.866,241.62 188.819,241.62 " />
<polyline fill="none" vector-effect="non-scaling-stroke" points="188.819,209.32 188.819,201.431 " />
<polyline fill="none" vector-effect="non-scaling-stroke" points="188.819,173.481 188.819,127.273 " />
<polyline fill="none" vector-effect="non-scaling-stroke" points="188.771,99.0971 188.771,91.9994 " />
<polyline fill="none" vector-effect="non-scaling-stroke" points="415.197,72.0476 415.197,20.3171 " />
<polyline fill="none" vector-effect="non-scaling-stroke" points="395.252,60.9936 400.631,60.9936 " />
<polyline fill="none" vector-effect="non-scaling-stroke" points="397.739,20.3171 397.739,60.9936 " />
<polyline fill="none" vector-effect="non-scaling-stroke" points="409.779,60.9936 415.197,60.9936 " />
<polyline fill="none" vector-effect="non-scaling-stroke" points="187.712,463.471 157.039,463.471 " />
</g>

<g fill="none" stroke="#000000" stroke-opacity="1" stroke-width="1" stroke-linecap="square" stroke-linejoin="bevel" transform="matrix(1,0,0,1,0,0)"
font-family="Ubuntu" font-size="14.6667" font-weight="400" font-style="normal" 
>
</g>
</g>
</svg>
