<?xml version="1.0" encoding="UTF-8" standalone="no"?>
<svg width="225.954mm" height="125.942mm"
 viewBox="0 0 854 476"
 xmlns="http://www.w3.org/2000/svg" xmlns:xlink="http://www.w3.org/1999/xlink"  version="1.2" baseProfile="tiny">
<title>Qt SVG Document</title>
<desc>Generated with Qt</desc>
<defs>
</defs>
<g fill="none" stroke="black" stroke-width="1" fill-rule="evenodd" stroke-linecap="square" stroke-linejoin="bevel" >

<g fill="#000000" fill-opacity="1" stroke="none" transform="matrix(1,0,0,1,0,0)"
font-family="Ubuntu" font-size="14.6667" font-weight="400" font-style="normal" 
>
<path vector-effect="none" fill-rule="evenodd" d="M0,0 L854,0 L854,476 L0,476 L0,0"/>
</g>

<g fill="none" stroke="#000000" stroke-opacity="1" stroke-width="1" stroke-linecap="square" stroke-linejoin="bevel" transform="matrix(1,0,0,1,0,0)"
font-family="Ubuntu" font-size="14.6667" font-weight="400" font-style="normal" 
>
</g>

<g fill="#000000" fill-opacity="1" stroke="#000000" stroke-opacity="1" stroke-width="1" stroke-linecap="butt" stroke-linejoin="miter" stroke-miterlimit="2" transform="matrix(1,0,0,1,0,0)"
font-family="Ubuntu" font-size="14.6667" font-weight="400" font-style="normal" 
>
</g>

<g fill="#000000" fill-opacity="1" stroke="#000000" stroke-opacity="1" stroke-width="1" stroke-linecap="butt" stroke-linejoin="miter" stroke-miterlimit="2" transform="matrix(1,0,0,1,0,0)"
font-family="Ubuntu" font-size="14.6667" font-weight="400" font-style="normal" 
>
</g>

<g fill="#00ffff" fill-opacity="1" stroke="#00ffff" stroke-opacity="1" stroke-width="1" stroke-linecap="square" stroke-linejoin="bevel" transform="matrix(1,0,0,1,0,0)"
font-family="Ubuntu" font-size="14.6667" font-weight="400" font-style="normal" 
>
<polyline fill="none" vector-effect="non-scaling-stroke" points="224.717,402.344 190.457,402.344 " />
<polyline fill="none" vector-effect="non-scaling-stroke" points="193.693,20.3171 251.391,20.3171 " />
<polyline fill="none" vector-effect="non-scaling-stroke" points="331.742,20.3171 251.391,20.3171 " />
<polyline fill="none" vector-effect="non-scaling-stroke" points="188.771,64.3282 188.771,91.9994 " />
<polyline fill="none" vector-effect="non-scaling-stroke" points="188.771,99.0971 188.819,127.273 " />
<polyline fill="none" vector-effect="non-scaling-stroke" points="188.819,173.481 188.819,201.431 " />
<polyline fill="none" vector-effect="non-scaling-stroke" points="188.819,209.32 188.819,236.932 " />
<polyline fill="none" vector-effect="non-scaling-stroke" points="188.819,282.699 188.819,310.627 " />
<polyline fill="none" vector-effect="non-scaling-stroke" points="188.819,318.039 188.819,348.632 " />
<polyline fill="none" vector-effect="non-scaling-stroke" points="188.819,397.791 188.819,426.302 " />
<polyline fill="none" vector-effect="non-scaling-stroke" points="422.311,20.3171 494.506,20.3171 " />
<polyline fill="none" vector-effect="non-scaling-stroke" points="504.024,20.3171 580.49,20.3171 " />
<polyline fill="none" vector-effect="non-scaling-stroke" points="589.565,20.3171 644.182,20.3171 " />
<polyline fill="none" vector-effect="non-scaling-stroke" points="669.556,26.1502 669.556,90.7609 " />
<polyline fill="none" vector-effect="non-scaling-stroke" points="669.556,101.053 669.556,165.664 " />
<polyline fill="none" vector-effect="non-scaling-stroke" points="669.556,175.956 669.556,235.815 " />
<polyline fill="none" vector-effect="non-scaling-stroke" points="669.556,246.107 669.556,311.486 " />
<polyline fill="none" vector-effect="non-scaling-stroke" points="669.556,322.756 669.556,384.122 " />
<polyline fill="none" vector-effect="non-scaling-stroke" points="669.556,395.392 669.556,447.129 " />
<polyline fill="none" vector-effect="non-scaling-stroke" points="661.638,463.471 589.734,463.471 " />
<polyline fill="none" vector-effect="non-scaling-stroke" points="575.252,463.471 503.122,463.471 " />
<polyline fill="none" vector-effect="non-scaling-stroke" points="489.598,463.471 417.242,463.471 " />
<polyline fill="none" vector-effect="non-scaling-stroke" points="404.507,463.471 347.251,463.471 " />
<polyline fill="none" vector-effect="non-scaling-stroke" points="343.778,463.471 332.715,463.471 " />
</g>

<g fill="#000000" fill-opacity="1" stroke="#000000" stroke-opacity="1" stroke-width="1" stroke-linecap="square" stroke-linejoin="bevel" transform="matrix(1,0,0,1,0,0)"
font-family="Ubuntu" font-size="14.6667" font-weight="400" font-style="normal" 
>
<polyline fill="none" vector-effect="non-scaling-stroke" points="589.565,75.2604 589.565,23.4172 " />
</g>

<g fill="#00ffff" fill-opacity="1" stroke="#00ffff" stroke-opacity="1" stroke-width="1" stroke-linecap="square" stroke-linejoin="bevel" transform="matrix(1,0,0,1,0,0)"
font-family="Ubuntu" font-size="14.6667" font-weight="400" font-style="normal" 
>
<polyline fill="none" vector-effect="non-scaling-stroke" points="395.055,156.688 359.385,156.688 " />
<polyline fill="none" vector-effect="non-scaling-stroke" points="359.385,116.159 359.385,156.688 " />
<polyline fill="none" vector-effect="non-scaling-stroke" points="278.369,167.212 222.637,167.212 " />
<polyline fill="none" vector-effect="non-scaling-stroke" points="264.244,130.549 264.244,167.212 " />
<polyline fill="none" vector-effect="non-scaling-stroke" points="301.128,164.774 301.128,130.549 " />
<polyline fill="none" vector-effect="non-scaling-stroke" points="347.607,156.16 347.607,130.549 319.6,130.549 " />
<polyline fill="none" vector-effect="non-scaling-stroke" points="520.683,92.673 550.824,92.673 " />
<polyline fill="none" vector-effect="non-scaling-stroke" points="550.824,92.673 589.565,92.673 " />
<polyline fill="none" vector-effect="non-scaling-stroke" points="589.565,75.2604 589.565,20.3171 " />
<polyline fill="none" vector-effect="non-scaling-stroke" points="631.256,57.5595 631.256,20.3171 " />
<polyline fill="none" vector-effect="non-scaling-stroke" points="192.866,241.62 256.43,241.62 " />
<polyline fill="none" vector-effect="non-scaling-stroke" points="256.43,241.62 272.239,241.62 " />
<polyline fill="none" vector-effect="non-scaling-stroke" points="256.43,241.62 256.43,281.916 274.351,281.916 " />
<polyline fill="none" vector-effect="non-scaling-stroke" points="245.175,281.831 188.819,281.831 " />
<polyline fill="none" vector-effect="non-scaling-stroke" points="415.197,96.6176 469.8,96.6176 " />
<polyline fill="none" vector-effect="non-scaling-stroke" points="469.8,96.6176 469.8,51.6045 " />
<polyline fill="none" vector-effect="non-scaling-stroke" points="469.8,42.5883 469.8,20.3171 " />
<polyline fill="none" vector-effect="non-scaling-stroke" points="301.128,180.527 301.128,229.933 " />
<polyline fill="none" vector-effect="non-scaling-stroke" points="395.055,116.159 370.711,116.159 " />
<polyline fill="none" vector-effect="non-scaling-stroke" points="406.83,116.199 416.747,116.199 " />
<polyline fill="none" vector-effect="non-scaling-stroke" points="450.068,154.721 395.055,154.721 " />
<polyline fill="none" vector-effect="non-scaling-stroke" points="631.256,57.5595 601.559,57.5595 " />
<polyline fill="none" vector-effect="non-scaling-stroke" points="631.256,57.5595 644.161,57.5595 " />
<polyline fill="none" vector-effect="non-scaling-stroke" points="662.239,57.5595 669.556,57.5595 " />
<polyline fill="none" vector-effect="non-scaling-stroke" points="224.717,402.344 188.819,402.344 " />
<polyline fill="none" vector-effect="non-scaling-stroke" points="188.824,432.839 188.737,446.325 " />
<polyline fill="none" vector-effect="non-scaling-stroke" points="195.078,463.471 247.103,463.471 " />
<polyline fill="none" vector-effect="non-scaling-stroke" points="290.227,397.986 290.227,453.674 " />
<polyline fill="none" vector-effect="non-scaling-stroke" points="255.374,463.471 290.227,463.471 " />
<polyline fill="none" vector-effect="non-scaling-stroke" points="585.117,386.545 585.117,353.185 " />
<polyline fill="none" vector-effect="non-scaling-stroke" points="354.621,366.585 354.621,392.425 " />
</g>

<g fill="none" stroke="#000000" stroke-opacity="1" stroke-width="1" stroke-linecap="square" stroke-linejoin="bevel" transform="matrix(1,0,0,1,0,0)"
font-family="Ubuntu" font-size="14.6667" font-weight="400" font-style="normal" 
>
</g>
</g>
</svg>
